<?xml version="1.0" encoding="UTF-8"?>
<svg xmlns="http://www.w3.org/2000/svg" xmlns:xlink="http://www.w3.org/1999/xlink" width="600pt" height="450pt" viewBox="0 0 600 450" version="1.1">
<g id="surface1">
<path style=" stroke:none;fill-rule:nonzero;fill:rgb(46.666667%,67.843137%,81.176471%);fill-opacity:1;" d="M 225 300 L 150 375 L 225 450 L 300 375 Z M 225 300 "/>
<path style=" stroke:none;fill-rule:nonzero;fill:rgb(33.72549%,70.196078%,52.54902%);fill-opacity:1;" d="M 225 300 L 300 225 L 225 150 L 150 225 Z M 225 300 "/>
<path style=" stroke:none;fill-rule:nonzero;fill:rgb(96.862745%,70.980392%,23.137255%);fill-opacity:1;" d="M 225 300 L 300 375 L 375 300 L 300 225 Z M 225 300 "/>
<path style=" stroke:none;fill-rule:nonzero;fill:rgb(54.901961%,1.176471%,36.862745%);fill-opacity:1;" d="M 225 300 L 150 225 L 75 300 L 150 375 Z M 225 300 "/>
<path style=" stroke:none;fill-rule:nonzero;fill:rgb(96.862745%,70.980392%,23.137255%);fill-opacity:1;" d="M 450 225 L 375 300 L 450 375 L 525 300 Z M 450 225 "/>
<path style=" stroke:none;fill-rule:nonzero;fill:rgb(54.901961%,1.176471%,36.862745%);fill-opacity:1;" d="M 450 225 L 525 150 L 450 75 L 375 150 Z M 450 225 "/>
<path style=" stroke:none;fill-rule:nonzero;fill:rgb(46.666667%,67.843137%,81.176471%);fill-opacity:1;" d="M 450 225 L 525 300 L 600 225 L 525 150 Z M 450 225 "/>
<path style=" stroke:none;fill-rule:nonzero;fill:rgb(33.72549%,70.196078%,52.54902%);fill-opacity:1;" d="M 450 225 L 375 150 L 300 225 L 375 300 Z M 450 225 "/>
<path style=" stroke:none;fill-rule:nonzero;fill:rgb(46.666667%,67.843137%,81.176471%);fill-opacity:1;" d="M 375 150 L 450 75 L 375 0 L 300 75 Z M 375 150 "/>
<path style=" stroke:none;fill-rule:nonzero;fill:rgb(33.72549%,70.196078%,52.54902%);fill-opacity:1;" d="M 375 150 L 300 225 L 375 300 L 450 225 Z M 375 150 "/>
<path style=" stroke:none;fill-rule:nonzero;fill:rgb(96.862745%,70.980392%,23.137255%);fill-opacity:1;" d="M 375 150 L 300 75 L 225 150 L 300 225 Z M 375 150 "/>
<path style=" stroke:none;fill-rule:nonzero;fill:rgb(54.901961%,1.176471%,36.862745%);fill-opacity:1;" d="M 375 150 L 450 225 L 525 150 L 450 75 Z M 375 150 "/>
<path style=" stroke:none;fill-rule:nonzero;fill:rgb(96.862745%,70.980392%,23.137255%);fill-opacity:1;" d="M 150 225 L 225 150 L 150 75 L 75 150 Z M 150 225 "/>
<path style=" stroke:none;fill-rule:nonzero;fill:rgb(54.901961%,1.176471%,36.862745%);fill-opacity:1;" d="M 150 225 L 75 300 L 150 375 L 225 300 Z M 150 225 "/>
<path style=" stroke:none;fill-rule:nonzero;fill:rgb(46.666667%,67.843137%,81.176471%);fill-opacity:1;" d="M 150 225 L 75 150 L 0 225 L 75 300 Z M 150 225 "/>
<path style=" stroke:none;fill-rule:nonzero;fill:rgb(33.72549%,70.196078%,52.54902%);fill-opacity:1;" d="M 150 225 L 225 300 L 300 225 L 225 150 Z M 150 225 "/>
</g>
</svg>
