<?xml version="1.0" encoding="UTF-8"?>
<svg xmlns="http://www.w3.org/2000/svg" xmlns:xlink="http://www.w3.org/1999/xlink" width="600pt" height="507.622581pt" viewBox="0 0 600 507.622581" version="1.1">
<g id="surface1">
<path style=" stroke:none;fill-rule:nonzero;fill:rgb(33.72549%,70.196078%,52.54902%);fill-opacity:1;" d="M 142.300781 349.925781 L 67.960938 424.265625 L 120.527344 476.832031 L 194.867188 402.492188 Z M 142.300781 349.925781 "/>
<path style=" stroke:none;fill-rule:nonzero;fill:rgb(46.666667%,67.843137%,81.176471%);fill-opacity:1;" d="M 194.867188 402.492188 L 142.300781 455.058594 L 194.867188 507.625 L 247.433594 455.058594 Z M 194.867188 402.492188 "/>
<path style=" stroke:none;fill-rule:nonzero;fill:rgb(22.745098%,48.627451%,64.705882%);fill-opacity:1;" d="M 173.09375 349.925781 L 247.433594 275.585938 L 194.867188 223.019531 L 120.527344 297.359375 Z M 173.09375 349.925781 "/>
<path style=" stroke:none;fill-rule:nonzero;fill:rgb(61.176471%,82.745098%,72.54902%);fill-opacity:1;" d="M 120.527344 297.359375 L 173.09375 244.792969 L 120.527344 192.226562 L 67.960938 244.792969 Z M 120.527344 297.359375 "/>
<path style=" stroke:none;fill-rule:nonzero;fill:rgb(98.039216%,82.745098%,53.72549%);fill-opacity:1;" d="M 157.699219 365.320312 L 232.039062 439.660156 L 284.605469 387.09375 L 210.265625 312.753906 Z M 157.699219 365.320312 "/>
<path style=" stroke:none;fill-rule:nonzero;fill:rgb(96.862745%,70.980392%,23.137255%);fill-opacity:1;" d="M 210.265625 312.753906 L 262.832031 365.320312 L 315.398438 312.753906 L 262.832031 260.1875 Z M 210.265625 312.753906 "/>
<path style=" stroke:none;fill-rule:nonzero;fill:rgb(99.215686%,68.627451%,89.019608%);fill-opacity:1;" d="M 157.699219 334.527344 L 83.359375 260.1875 L 30.792969 312.753906 L 105.132812 387.09375 Z M 157.699219 334.527344 "/>
<path style=" stroke:none;fill-rule:nonzero;fill:rgb(54.901961%,1.176471%,36.862745%);fill-opacity:1;" d="M 105.132812 387.09375 L 52.566406 334.527344 L 0 387.09375 L 52.566406 439.660156 Z M 105.132812 387.09375 "/>
<path style=" stroke:none;fill-rule:nonzero;fill:rgb(33.72549%,70.196078%,52.54902%);fill-opacity:1;" d="M 405.132812 297.359375 L 330.792969 371.699219 L 383.359375 424.265625 L 457.699219 349.925781 Z M 405.132812 297.359375 "/>
<path style=" stroke:none;fill-rule:nonzero;fill:rgb(46.666667%,67.843137%,81.176471%);fill-opacity:1;" d="M 457.699219 349.925781 L 405.132812 402.492188 L 457.699219 455.058594 L 510.265625 402.492188 Z M 457.699219 349.925781 "/>
<path style=" stroke:none;fill-rule:nonzero;fill:rgb(22.745098%,48.627451%,64.705882%);fill-opacity:1;" d="M 435.925781 297.359375 L 510.265625 223.019531 L 457.699219 170.453125 L 383.359375 244.792969 Z M 435.925781 297.359375 "/>
<path style=" stroke:none;fill-rule:nonzero;fill:rgb(61.176471%,82.745098%,72.54902%);fill-opacity:1;" d="M 383.359375 244.792969 L 435.925781 192.226562 L 383.359375 139.660156 L 330.792969 192.226562 Z M 383.359375 244.792969 "/>
<path style=" stroke:none;fill-rule:nonzero;fill:rgb(98.039216%,82.745098%,53.72549%);fill-opacity:1;" d="M 420.527344 312.753906 L 494.867188 387.09375 L 547.433594 334.527344 L 473.09375 260.1875 Z M 420.527344 312.753906 "/>
<path style=" stroke:none;fill-rule:nonzero;fill:rgb(96.862745%,70.980392%,23.137255%);fill-opacity:1;" d="M 473.09375 260.1875 L 525.660156 312.753906 L 578.226562 260.1875 L 525.660156 207.621094 Z M 473.09375 260.1875 "/>
<path style=" stroke:none;fill-rule:nonzero;fill:rgb(99.215686%,68.627451%,89.019608%);fill-opacity:1;" d="M 420.527344 281.960938 L 346.1875 207.621094 L 293.621094 260.1875 L 367.960938 334.527344 Z M 420.527344 281.960938 "/>
<path style=" stroke:none;fill-rule:nonzero;fill:rgb(54.901961%,1.176471%,36.862745%);fill-opacity:1;" d="M 367.960938 334.527344 L 315.394531 281.960938 L 262.828125 334.527344 L 315.394531 387.09375 Z M 367.960938 334.527344 "/>
<path style=" stroke:none;fill-rule:nonzero;fill:rgb(33.72549%,70.196078%,52.54902%);fill-opacity:1;" d="M 457.699219 157.699219 L 532.039062 83.359375 L 479.472656 30.792969 L 405.132812 105.132812 Z M 457.699219 157.699219 "/>
<path style=" stroke:none;fill-rule:nonzero;fill:rgb(46.666667%,67.843137%,81.176471%);fill-opacity:1;" d="M 405.132812 105.132812 L 457.699219 52.566406 L 405.132812 0 L 352.566406 52.566406 Z M 405.132812 105.132812 "/>
<path style=" stroke:none;fill-rule:nonzero;fill:rgb(22.745098%,48.627451%,64.705882%);fill-opacity:1;" d="M 426.90625 157.699219 L 352.566406 232.039062 L 405.132812 284.605469 L 479.472656 210.265625 Z M 426.90625 157.699219 "/>
<path style=" stroke:none;fill-rule:nonzero;fill:rgb(61.176471%,82.745098%,72.54902%);fill-opacity:1;" d="M 479.472656 210.265625 L 426.90625 262.832031 L 479.472656 315.398438 L 532.039062 262.832031 Z M 479.472656 210.265625 "/>
<path style=" stroke:none;fill-rule:nonzero;fill:rgb(98.039216%,82.745098%,53.72549%);fill-opacity:1;" d="M 442.300781 142.300781 L 367.960938 67.960938 L 315.394531 120.527344 L 389.734375 194.867188 Z M 442.300781 142.300781 "/>
<path style=" stroke:none;fill-rule:nonzero;fill:rgb(96.862745%,70.980392%,23.137255%);fill-opacity:1;" d="M 389.734375 194.867188 L 337.167969 142.300781 L 284.601562 194.867188 L 337.167969 247.433594 Z M 389.734375 194.867188 "/>
<path style=" stroke:none;fill-rule:nonzero;fill:rgb(99.215686%,68.627451%,89.019608%);fill-opacity:1;" d="M 442.300781 173.09375 L 516.640625 247.433594 L 569.207031 194.867188 L 494.867188 120.527344 Z M 442.300781 173.09375 "/>
<path style=" stroke:none;fill-rule:nonzero;fill:rgb(54.901961%,1.176471%,36.862745%);fill-opacity:1;" d="M 494.867188 120.527344 L 547.433594 173.09375 L 600 120.527344 L 547.433594 67.960938 Z M 494.867188 120.527344 "/>
<path style=" stroke:none;fill-rule:nonzero;fill:rgb(33.72549%,70.196078%,52.54902%);fill-opacity:1;" d="M 194.867188 210.265625 L 269.207031 135.925781 L 216.640625 83.359375 L 142.300781 157.699219 Z M 194.867188 210.265625 "/>
<path style=" stroke:none;fill-rule:nonzero;fill:rgb(46.666667%,67.843137%,81.176471%);fill-opacity:1;" d="M 142.300781 157.699219 L 194.867188 105.132812 L 142.300781 52.566406 L 89.734375 105.132812 Z M 142.300781 157.699219 "/>
<path style=" stroke:none;fill-rule:nonzero;fill:rgb(22.745098%,48.627451%,64.705882%);fill-opacity:1;" d="M 164.074219 210.265625 L 89.734375 284.605469 L 142.300781 337.171875 L 216.640625 262.832031 Z M 164.074219 210.265625 "/>
<path style=" stroke:none;fill-rule:nonzero;fill:rgb(61.176471%,82.745098%,72.54902%);fill-opacity:1;" d="M 216.640625 262.832031 L 164.074219 315.398438 L 216.640625 367.964844 L 269.207031 315.398438 Z M 216.640625 262.832031 "/>
<path style=" stroke:none;fill-rule:nonzero;fill:rgb(98.039216%,82.745098%,53.72549%);fill-opacity:1;" d="M 179.472656 194.867188 L 105.132812 120.527344 L 52.566406 173.09375 L 126.90625 247.433594 Z M 179.472656 194.867188 "/>
<path style=" stroke:none;fill-rule:nonzero;fill:rgb(96.862745%,70.980392%,23.137255%);fill-opacity:1;" d="M 126.90625 247.433594 L 74.339844 194.867188 L 21.773438 247.433594 L 74.339844 300 Z M 126.90625 247.433594 "/>
<path style=" stroke:none;fill-rule:nonzero;fill:rgb(99.215686%,68.627451%,89.019608%);fill-opacity:1;" d="M 179.472656 225.660156 L 253.8125 300 L 306.378906 247.433594 L 232.039062 173.09375 Z M 179.472656 225.660156 "/>
<path style=" stroke:none;fill-rule:nonzero;fill:rgb(54.901961%,1.176471%,36.862745%);fill-opacity:1;" d="M 232.039062 173.09375 L 284.605469 225.660156 L 337.171875 173.09375 L 284.605469 120.527344 Z M 232.039062 173.09375 "/>
</g>
</svg>
