<?xml version="1.0" encoding="UTF-8"?>
<svg xmlns="http://www.w3.org/2000/svg" xmlns:xlink="http://www.w3.org/1999/xlink" width="600pt" height="839.433492pt" viewBox="0 0 600 839.433492" version="1.1">
<g id="surface1">
<path style=" stroke:none;fill-rule:nonzero;fill:rgb(22.745098%,48.627451%,64.705882%);fill-opacity:1;" d="M 115.785156 595.667969 C 115.785156 563.695312 89.867188 537.777344 57.894531 537.777344 C 25.921875 537.777344 0.00390625 563.695312 0.00390625 595.667969 C 0.00390625 627.640625 25.921875 653.558594 57.894531 653.558594 C 89.867188 653.558594 115.785156 627.640625 115.785156 595.667969 Z M 115.785156 595.667969 "/>
<path style=" stroke:none;fill-rule:nonzero;fill:rgb(33.72549%,70.196078%,52.54902%);fill-opacity:1;" d="M 600 57.890625 C 600 25.917969 574.082031 0 542.109375 0 C 510.136719 0 484.21875 25.917969 484.21875 57.890625 C 484.21875 89.863281 510.136719 115.78125 542.109375 115.78125 C 574.082031 115.78125 600 89.863281 600 57.890625 Z M 600 57.890625 "/>
<path style=" stroke:none;fill-rule:nonzero;fill:rgb(96.862745%,70.980392%,23.137255%);fill-opacity:1;" d="M 600 781.542969 C 600 749.570312 574.082031 723.652344 542.109375 723.652344 C 510.136719 723.652344 484.21875 749.570312 484.21875 781.542969 C 484.21875 813.515625 510.136719 839.433594 542.109375 839.433594 C 574.082031 839.433594 600 813.515625 600 781.542969 Z M 600 781.542969 "/>
<path style="fill-rule:nonzero;fill:rgb(54.901961%,1.176471%,36.862745%);fill-opacity:1;stroke-width:5;stroke-linecap:butt;stroke-linejoin:miter;stroke:rgb(19.215686%,21.176471%,15.686275%);stroke-opacity:1;stroke-miterlimit:10;" d="M 542.109375 478.367188 C 542.109375 389.226562 469.847656 316.960938 380.703125 316.960938 C 291.5625 316.960938 219.296875 389.222656 219.296875 478.367188 C 219.296875 567.507812 291.558594 639.773438 380.703125 639.773438 C 469.84375 639.773438 542.109375 567.511719 542.109375 478.367188 Z M 542.109375 478.367188 "/>
<path style="fill:none;stroke-width:5;stroke-linecap:butt;stroke-linejoin:miter;stroke:rgb(19.215686%,21.176471%,15.686275%);stroke-opacity:1;stroke-miterlimit:10;" d="M 542.109375 781.542969 L 542.109375 57.894531 L 57.894531 595.671875 Z M 542.109375 781.542969 "/>
</g>
</svg>
