<?xml version="1.0" encoding="UTF-8"?>
<svg xmlns="http://www.w3.org/2000/svg" xmlns:xlink="http://www.w3.org/1999/xlink" width="600pt" height="600pt" viewBox="0 0 600 600" version="1.1">
<g id="surface1">
<path style="fill-rule:nonzero;fill:rgb(54.901961%,1.176471%,36.862745%);fill-opacity:1;stroke-width:2.4;stroke-linecap:butt;stroke-linejoin:miter;stroke:rgb(96.862745%,70.980392%,23.137255%);stroke-opacity:1;stroke-miterlimit:10;" d="M 428.332031 151.816406 L 428.332031 225.167969 L 491.855469 188.492188 L 491.855469 115.140625 Z M 428.332031 151.816406 "/>
<path style="fill-rule:nonzero;fill:rgb(22.745098%,48.627451%,64.705882%);fill-opacity:1;stroke-width:2.4;stroke-linecap:butt;stroke-linejoin:miter;stroke:rgb(96.862745%,70.980392%,23.137255%);stroke-opacity:1;stroke-miterlimit:10;" d="M 428.332031 78.464844 L 491.855469 115.140625 L 428.332031 151.816406 L 364.808594 115.140625 Z M 428.332031 78.464844 "/>
<path style="fill-rule:nonzero;fill:rgb(33.72549%,70.196078%,52.54902%);fill-opacity:1;stroke-width:2.4;stroke-linecap:butt;stroke-linejoin:miter;stroke:rgb(96.862745%,70.980392%,23.137255%);stroke-opacity:1;stroke-miterlimit:10;" d="M 428.332031 151.816406 L 364.808594 115.140625 L 364.808594 188.492188 L 428.332031 225.167969 Z M 428.332031 151.816406 "/>
<path style="fill-rule:nonzero;fill:rgb(54.901961%,1.176471%,36.862745%);fill-opacity:1;stroke-width:2.4;stroke-linecap:butt;stroke-linejoin:miter;stroke:rgb(96.862745%,70.980392%,23.137255%);stroke-opacity:1;stroke-miterlimit:10;" d="M 300 151.816406 L 300 225.167969 L 363.523438 188.492188 L 363.523438 115.140625 Z M 300 151.816406 "/>
<path style="fill-rule:nonzero;fill:rgb(22.745098%,48.627451%,64.705882%);fill-opacity:1;stroke-width:2.4;stroke-linecap:butt;stroke-linejoin:miter;stroke:rgb(96.862745%,70.980392%,23.137255%);stroke-opacity:1;stroke-miterlimit:10;" d="M 300 78.464844 L 363.523438 115.140625 L 300 151.816406 L 236.476562 115.140625 Z M 300 78.464844 "/>
<path style="fill-rule:nonzero;fill:rgb(33.72549%,70.196078%,52.54902%);fill-opacity:1;stroke-width:2.4;stroke-linecap:butt;stroke-linejoin:miter;stroke:rgb(96.862745%,70.980392%,23.137255%);stroke-opacity:1;stroke-miterlimit:10;" d="M 300 151.816406 L 236.476562 115.140625 L 236.476562 188.492188 L 300 225.167969 Z M 300 151.816406 "/>
<path style="fill-rule:nonzero;fill:rgb(54.901961%,1.176471%,36.862745%);fill-opacity:1;stroke-width:2.4;stroke-linecap:butt;stroke-linejoin:miter;stroke:rgb(96.862745%,70.980392%,23.137255%);stroke-opacity:1;stroke-miterlimit:10;" d="M 492.496094 262.953125 L 492.496094 336.304688 L 556.019531 299.628906 L 556.019531 226.277344 Z M 492.496094 262.953125 "/>
<path style="fill-rule:nonzero;fill:rgb(22.745098%,48.627451%,64.705882%);fill-opacity:1;stroke-width:2.4;stroke-linecap:butt;stroke-linejoin:miter;stroke:rgb(96.862745%,70.980392%,23.137255%);stroke-opacity:1;stroke-miterlimit:10;" d="M 492.496094 189.601562 L 556.019531 226.277344 L 492.496094 262.953125 L 428.972656 226.277344 Z M 492.496094 189.601562 "/>
<path style="fill-rule:nonzero;fill:rgb(33.72549%,70.196078%,52.54902%);fill-opacity:1;stroke-width:2.4;stroke-linecap:butt;stroke-linejoin:miter;stroke:rgb(96.862745%,70.980392%,23.137255%);stroke-opacity:1;stroke-miterlimit:10;" d="M 492.496094 262.953125 L 428.972656 226.277344 L 428.972656 299.628906 L 492.496094 336.304688 Z M 492.496094 262.953125 "/>
<path style="fill-rule:nonzero;fill:rgb(54.901961%,1.176471%,36.862745%);fill-opacity:1;stroke-width:2.4;stroke-linecap:butt;stroke-linejoin:miter;stroke:rgb(96.862745%,70.980392%,23.137255%);stroke-opacity:1;stroke-miterlimit:10;" d="M 428.332031 374.089844 L 428.332031 447.441406 L 491.855469 410.765625 L 491.855469 337.414062 Z M 428.332031 374.089844 "/>
<path style="fill-rule:nonzero;fill:rgb(22.745098%,48.627451%,64.705882%);fill-opacity:1;stroke-width:2.4;stroke-linecap:butt;stroke-linejoin:miter;stroke:rgb(96.862745%,70.980392%,23.137255%);stroke-opacity:1;stroke-miterlimit:10;" d="M 428.332031 300.742188 L 491.855469 337.417969 L 428.332031 374.09375 L 364.808594 337.417969 Z M 428.332031 300.742188 "/>
<path style="fill-rule:nonzero;fill:rgb(33.72549%,70.196078%,52.54902%);fill-opacity:1;stroke-width:2.4;stroke-linecap:butt;stroke-linejoin:miter;stroke:rgb(96.862745%,70.980392%,23.137255%);stroke-opacity:1;stroke-miterlimit:10;" d="M 428.332031 374.089844 L 364.808594 337.414062 L 364.808594 410.765625 L 428.332031 447.441406 Z M 428.332031 374.089844 "/>
<path style="fill-rule:nonzero;fill:rgb(54.901961%,1.176471%,36.862745%);fill-opacity:1;stroke-width:2.4;stroke-linecap:butt;stroke-linejoin:miter;stroke:rgb(96.862745%,70.980392%,23.137255%);stroke-opacity:1;stroke-miterlimit:10;" d="M 235.835938 485.230469 L 235.835938 558.582031 L 299.359375 521.90625 L 299.359375 448.554688 Z M 235.835938 485.230469 "/>
<path style="fill-rule:nonzero;fill:rgb(22.745098%,48.627451%,64.705882%);fill-opacity:1;stroke-width:2.4;stroke-linecap:butt;stroke-linejoin:miter;stroke:rgb(96.862745%,70.980392%,23.137255%);stroke-opacity:1;stroke-miterlimit:10;" d="M 235.835938 411.878906 L 299.359375 448.554688 L 235.835938 485.230469 L 172.3125 448.554688 Z M 235.835938 411.878906 "/>
<path style="fill-rule:nonzero;fill:rgb(33.72549%,70.196078%,52.54902%);fill-opacity:1;stroke-width:2.4;stroke-linecap:butt;stroke-linejoin:miter;stroke:rgb(96.862745%,70.980392%,23.137255%);stroke-opacity:1;stroke-miterlimit:10;" d="M 235.835938 485.230469 L 172.3125 448.554688 L 172.3125 521.90625 L 235.835938 558.582031 Z M 235.835938 485.230469 "/>
<path style="fill-rule:nonzero;fill:rgb(54.901961%,1.176471%,36.862745%);fill-opacity:1;stroke-width:2.4;stroke-linecap:butt;stroke-linejoin:miter;stroke:rgb(96.862745%,70.980392%,23.137255%);stroke-opacity:1;stroke-miterlimit:10;" d="M 107.503906 262.953125 L 107.503906 336.304688 L 171.027344 299.628906 L 171.027344 226.277344 Z M 107.503906 262.953125 "/>
<path style="fill-rule:nonzero;fill:rgb(22.745098%,48.627451%,64.705882%);fill-opacity:1;stroke-width:2.4;stroke-linecap:butt;stroke-linejoin:miter;stroke:rgb(96.862745%,70.980392%,23.137255%);stroke-opacity:1;stroke-miterlimit:10;" d="M 107.503906 189.601562 L 171.027344 226.277344 L 107.503906 262.953125 L 43.980469 226.277344 Z M 107.503906 189.601562 "/>
<path style="fill-rule:nonzero;fill:rgb(33.72549%,70.196078%,52.54902%);fill-opacity:1;stroke-width:2.4;stroke-linecap:butt;stroke-linejoin:miter;stroke:rgb(96.862745%,70.980392%,23.137255%);stroke-opacity:1;stroke-miterlimit:10;" d="M 107.503906 262.953125 L 43.980469 226.277344 L 43.980469 299.628906 L 107.503906 336.304688 Z M 107.503906 262.953125 "/>
<path style="fill-rule:nonzero;fill:rgb(54.901961%,1.176471%,36.862745%);fill-opacity:1;stroke-width:2.4;stroke-linecap:butt;stroke-linejoin:miter;stroke:rgb(96.862745%,70.980392%,23.137255%);stroke-opacity:1;stroke-miterlimit:10;" d="M 171.667969 374.089844 L 171.667969 447.441406 L 235.191406 410.765625 L 235.191406 337.414062 Z M 171.667969 374.089844 "/>
<path style="fill-rule:nonzero;fill:rgb(22.745098%,48.627451%,64.705882%);fill-opacity:1;stroke-width:2.4;stroke-linecap:butt;stroke-linejoin:miter;stroke:rgb(96.862745%,70.980392%,23.137255%);stroke-opacity:1;stroke-miterlimit:10;" d="M 171.667969 300.742188 L 235.191406 337.417969 L 171.667969 374.09375 L 108.144531 337.417969 Z M 171.667969 300.742188 "/>
<path style="fill-rule:nonzero;fill:rgb(33.72549%,70.196078%,52.54902%);fill-opacity:1;stroke-width:2.4;stroke-linecap:butt;stroke-linejoin:miter;stroke:rgb(96.862745%,70.980392%,23.137255%);stroke-opacity:1;stroke-miterlimit:10;" d="M 171.667969 374.089844 L 108.144531 337.414062 L 108.144531 410.765625 L 171.667969 447.441406 Z M 171.667969 374.089844 "/>
<path style="fill-rule:nonzero;fill:rgb(54.901961%,1.176471%,36.862745%);fill-opacity:1;stroke-width:2.4;stroke-linecap:butt;stroke-linejoin:miter;stroke:rgb(96.862745%,70.980392%,23.137255%);stroke-opacity:1;stroke-miterlimit:10;" d="M 364.164062 262.953125 L 364.164062 336.304688 L 427.6875 299.628906 L 427.6875 226.277344 Z M 364.164062 262.953125 "/>
<path style="fill-rule:nonzero;fill:rgb(22.745098%,48.627451%,64.705882%);fill-opacity:1;stroke-width:2.4;stroke-linecap:butt;stroke-linejoin:miter;stroke:rgb(96.862745%,70.980392%,23.137255%);stroke-opacity:1;stroke-miterlimit:10;" d="M 364.164062 189.601562 L 427.6875 226.277344 L 364.164062 262.953125 L 300.640625 226.277344 Z M 364.164062 189.601562 "/>
<path style="fill-rule:nonzero;fill:rgb(33.72549%,70.196078%,52.54902%);fill-opacity:1;stroke-width:2.4;stroke-linecap:butt;stroke-linejoin:miter;stroke:rgb(96.862745%,70.980392%,23.137255%);stroke-opacity:1;stroke-miterlimit:10;" d="M 364.164062 262.953125 L 300.640625 226.277344 L 300.640625 299.628906 L 364.164062 336.304688 Z M 364.164062 262.953125 "/>
<path style="fill-rule:nonzero;fill:rgb(54.901961%,1.176471%,36.862745%);fill-opacity:1;stroke-width:2.4;stroke-linecap:butt;stroke-linejoin:miter;stroke:rgb(96.862745%,70.980392%,23.137255%);stroke-opacity:1;stroke-miterlimit:10;" d="M 235.835938 262.953125 L 235.835938 336.304688 L 299.359375 299.628906 L 299.359375 226.277344 Z M 235.835938 262.953125 "/>
<path style="fill-rule:nonzero;fill:rgb(22.745098%,48.627451%,64.705882%);fill-opacity:1;stroke-width:2.4;stroke-linecap:butt;stroke-linejoin:miter;stroke:rgb(96.862745%,70.980392%,23.137255%);stroke-opacity:1;stroke-miterlimit:10;" d="M 235.835938 189.601562 L 299.359375 226.277344 L 235.835938 262.953125 L 172.3125 226.277344 Z M 235.835938 189.601562 "/>
<path style="fill-rule:nonzero;fill:rgb(33.72549%,70.196078%,52.54902%);fill-opacity:1;stroke-width:2.4;stroke-linecap:butt;stroke-linejoin:miter;stroke:rgb(96.862745%,70.980392%,23.137255%);stroke-opacity:1;stroke-miterlimit:10;" d="M 235.835938 262.953125 L 172.3125 226.277344 L 172.3125 299.628906 L 235.835938 336.304688 Z M 235.835938 262.953125 "/>
<path style="fill-rule:nonzero;fill:rgb(54.901961%,1.176471%,36.862745%);fill-opacity:1;stroke-width:2.4;stroke-linecap:butt;stroke-linejoin:miter;stroke:rgb(96.862745%,70.980392%,23.137255%);stroke-opacity:1;stroke-miterlimit:10;" d="M 300 374.089844 L 300 447.441406 L 363.523438 410.765625 L 363.523438 337.414062 Z M 300 374.089844 "/>
<path style="fill-rule:nonzero;fill:rgb(22.745098%,48.627451%,64.705882%);fill-opacity:1;stroke-width:2.4;stroke-linecap:butt;stroke-linejoin:miter;stroke:rgb(96.862745%,70.980392%,23.137255%);stroke-opacity:1;stroke-miterlimit:10;" d="M 300 300.742188 L 363.523438 337.417969 L 300 374.09375 L 236.476562 337.417969 Z M 300 300.742188 "/>
<path style="fill-rule:nonzero;fill:rgb(33.72549%,70.196078%,52.54902%);fill-opacity:1;stroke-width:2.4;stroke-linecap:butt;stroke-linejoin:miter;stroke:rgb(96.862745%,70.980392%,23.137255%);stroke-opacity:1;stroke-miterlimit:10;" d="M 300 374.089844 L 236.476562 337.414062 L 236.476562 410.765625 L 300 447.441406 Z M 300 374.089844 "/>
</g>
</svg>
