<svg id="Layer_1" data-name="Layer 1" xmlns="http://www.w3.org/2000/svg" viewBox="0 0 246.1 57.66"><defs><style>.cls-1{fill:#f8c22b;}.cls-2{fill:#009fa2;}.cls-3{fill:#38c0ea;}.cls-4{fill:#5c3694;}.cls-5{fill:#3d855c;}.cls-6{fill:#c02046;}</style></defs><path class="cls-1" d="M235.05,44.17c-2.23,4.12-3.16,9-3.16,14.85,0,12.79,5.41,21.85,17.48,21.85,6.2,0,11.2-3.89,13.67-3.89a1.6,1.6,0,0,1,1.74,1.82c0,4.93-9,7.87-15.41,7.87-16.05,0-23.59-12.31-23.59-27.65,0,0-.61-9.34,4-17.53a3.51,3.51,0,0,0,2,2.62A3.75,3.75,0,0,0,235.05,44.17Z" transform="translate(-18.68 -29.13)"/><path class="cls-2" d="M43.94,81.11,59.36,30.58c.31-.95,2.06-1.43,3.65-1.43,1.75,0,3.18.55,2.78,1.83L49.51,81.82c-1.43,5.41-9.11,6.92-12.24,1.94C38.83,84.86,43.48,84.11,43.94,81.11Z" transform="translate(-18.68 -29.13)"/><path class="cls-1" d="M41.1,77.61c-3.91-11.4-12.19-35.5-16.14-47-.65-2.73-7.39-1.21-6.12,1.35,4,11.52,13,37.08,16.94,48.38" transform="translate(-18.68 -29.13)"/><path class="cls-1" d="M35.78,80.31c2.2,1.15,5.73-1.27,5.32-2.7" transform="translate(-18.68 -29.13)"/><path class="cls-3" d="M164.05,68.65a4.74,4.74,0,0,0-3,1.31c-.39-10.39-28.94-8.71-28.94-26,0-10.65,8.26-14.78,17.8-14.78,5.72,0,11,.87,14.38,2.54,1.74.88,2.54,1.83,2.54,3.34a2.53,2.53,0,0,1-2.23,2.62c-1.9,0-7-2.62-14.62-2.62-8.1,0-11.75,3.34-11.75,8.74,0,12.31,28.7,9.85,29,25.84A3.73,3.73,0,0,0,164.05,68.65Z" transform="translate(-18.68 -29.13)"/><path class="cls-4" d="M167.34,73.6c0-.28.68,13.07-17.2,13.07a33,33,0,0,1-16.84-4.21,4.46,4.46,0,0,1-2.38-4c0-1.35.63-2.54,2.22-2.54,1.75,0,8.5,4.84,17.16,4.84,6.76,0,9.61-1.32,10.71-6.49.61-1.44,2.42-1.83,3.33-1.83a5.22,5.22,0,0,1,3,1.13" transform="translate(-18.68 -29.13)"/><path class="cls-5" d="M187.61,61.68l-.12-5a25.5,25.5,0,0,1,6.79-.56h2.61c8.43,0,12-4.45,12-10.56,0-6.36-3.33-10.33-12.07-10.33h-2.56a4.85,4.85,0,0,0,.93-2.89,4.21,4.21,0,0,0-1-2.7l2.6,0c12.47,0,18,7.55,18,15.9,0,6.51-3.81,13-11.52,14.77a7.4,7.4,0,0,1,3.31,3.87,4.39,4.39,0,0,0-3.49-.32A3.86,3.86,0,0,0,201,66.27c-1.92-3.82-3.39-4.55-8.87-4.55C192.13,61.72,187.75,61.67,187.61,61.68Zm4.27-26.41" transform="translate(-18.68 -29.13)"/><path class="cls-6" d="M185.46,61.74V84.23c0,1.27-2.47,2.46-4.21,2.46-1,0-1.75-.4-1.75-1.35V35.05c0-2.94,1.43-5.33,5.56-5.33,0,0,3.15-.12,5.57,0,2.51,2.72,0,5.59,0,5.59l-5.12,0V61.74Z" transform="translate(-18.68 -29.13)"/><path class="cls-1" d="M208.07,67.61l4.24,11.3c.56,1.35,1,2,2.62,2h1.27c1.12,0,1.67.95,1.67,2.3,0,1.9-1.27,3.49-4.13,3.49-4.21,0-5.88-2.22-7.31-6.11l-4.06-11s.68-2.15,2.34-2.66a3.48,3.48,0,0,1,3.36.65" transform="translate(-18.68 -29.13)"/><path class="cls-4" d="M249.29,29.15c5.17,0,10.65,1.59,13.11,3.89a3.64,3.64,0,0,1,1.27,2.7c0,1.67-.71,2.23-1.83,2.23-2.94,0-5.64-2.92-12.39-3-5.28-.08-8.8,1.75-12,5.68,0,0-2.16,1.68-4,.86a3.31,3.31,0,0,1-1.87-3.24C233.86,33.76,240.67,29.15,249.29,29.15Z" transform="translate(-18.68 -29.13)"/><path class="cls-6" d="M76.5,55.5c0-1.12-.45-1.56-1.41-1.56H73.37c-1,0-1.41-.89-1.41-1.86,0-1.56,1-3.5,2.31-3.5H76.5c3.57,0,5.58,2.08,5.58,6V83.91c0,1.34-2.09,2.38-3.72,2.38-1,0-1.86-.44-1.86-1.41Zm1.56-22A4.51,4.51,0,0,1,82.6,38a4.57,4.57,0,0,1-4.54,4.61A4.63,4.63,0,0,1,73.45,38a4.57,4.57,0,0,1,4.61-4.54" transform="translate(-18.68 -29.13)"/><path class="cls-6" d="M92.27,67.85c0-9.52,5.35-19.79,16.81-19.79,3,0,7.06.89,9.15,2.6a3.24,3.24,0,0,1,1.11,2.76,1.73,1.73,0,0,1-1.64,1.93c-1.19,0-4.16-2.08-8.7-2.08-7.29,0-11.15,7.44-11.15,14.43s3.72,13.39,10.93,13.39c5.8,0,7.88-3.72,10.19-3.72,1.11,0,1.56.59,1.56,1.63a4.17,4.17,0,0,1-.74,2.46c-2.09,3.2-7,4.83-11,4.83-10.93,0-16.51-8.85-16.51-18.44" transform="translate(-18.68 -29.13)"/></svg>